<svg xmlns="http://www.w3.org/2000/svg" width="256" height="198" viewBox="0 0 256 198"><rect width="100%" height="100%" fill="#DDDDDD"/><path fill="#999999" d="M82.575 99.275q0 3.66-1.22 6.72t-3.43 5.26q-2.2 2.21-5.31 3.43-3.1 1.22-6.9 1.22h-12.67v-33.26h12.67q3.8 0 6.9 1.23 3.11 1.23 5.31 3.43 2.21 2.2 3.43 5.26 1.22 3.05 1.22 6.71m-6.35 0q0-2.74-.72-4.91-.73-2.17-2.1-3.68-1.36-1.51-3.31-2.31-1.94-.81-4.38-.81h-6.46v23.42h6.46q2.44 0 4.38-.81 1.95-.8 3.31-2.31 1.37-1.5 2.1-3.68.72-2.17.72-4.91m15.39 2.12h10.72q0-1.11-.31-2.08-.31-.98-.94-1.72-.62-.73-1.57-1.16-.96-.42-2.22-.42-2.46 0-3.88 1.4-1.41 1.4-1.8 3.98m14.49 3.42h-14.61q.14 1.82.65 3.14.5 1.33 1.33 2.19t1.97 1.29q1.14.42 2.52.42t2.38-.32 1.75-.71q.74-.39 1.31-.72.56-.32 1.09-.32.71 0 1.06.53l1.63 2.07q-.94 1.1-2.12 1.85-1.17.75-2.45 1.2-1.27.45-2.59.63-1.33.18-2.57.18-2.46 0-4.58-.81-2.11-.82-3.68-2.42-1.56-1.6-2.46-3.95-.89-2.36-.89-5.46 0-2.42.78-4.55t2.24-3.7q1.46-1.58 3.57-2.5 2.1-.92 4.74-.92 2.24 0 4.12.72 1.89.71 3.24 2.08 1.36 1.37 2.13 3.36t.77 4.54q0 1.29-.27 1.74-.28.44-1.06.44m12.92 11.09h-5.68v-19.32l-2.04-.32q-.67-.14-1.07-.47-.41-.34-.41-.96v-2.32h3.52v-1.75q0-2.02.61-3.63t1.75-2.74 2.77-1.72q1.64-.6 3.68-.6 1.64 0 3.04.43l-.12 2.86q-.02.32-.18.51-.16.2-.43.3-.26.11-.61.14-.34.04-.73.04-1.01 0-1.81.21-.79.22-1.34.76t-.84 1.43q-.29.88-.29 2.2v1.56h6.14v4.05h-5.96zm21.62-6.09v-3.98q-2.46.11-4.14.42-1.67.31-2.69.79-1.01.49-1.45 1.13-.43.65-.43 1.4 0 1.5.88 2.14.89.65 2.31.65 1.75 0 3.03-.63 1.28-.64 2.49-1.92m-12-12.4-1.01-1.82q4.07-3.73 9.79-3.73 2.07 0 3.71.68 1.63.68 2.76 1.89 1.12 1.21 1.71 2.89.59 1.67.59 3.68v14.9h-2.58q-.8 0-1.24-.24t-.69-.98l-.51-1.7q-.89.8-1.74 1.41-.86.61-1.78 1.03-.92.41-1.96.63-1.05.22-2.31.22-1.5 0-2.76-.4-1.27-.41-2.19-1.21-.92-.81-1.42-2-.51-1.2-.51-2.79 0-.89.3-1.78.3-.88.98-1.69.67-.8 1.76-1.52 1.08-.71 2.65-1.24 1.58-.53 3.67-.86 2.09-.34 4.78-.4v-1.38q0-2.37-1.01-3.51t-2.92-1.14q-1.38 0-2.29.32t-1.6.73q-.69.4-1.25.72t-1.25.32q-.6 0-1.01-.31-.42-.31-.67-.72m37.53-5.11h5.69v23.6h-3.48q-1.12 0-1.42-1.03l-.39-1.89q-1.45 1.47-3.2 2.38t-4.12.91q-1.93 0-3.41-.66-1.49-.65-2.5-1.85-1.01-1.19-1.53-2.84-.52-1.64-.52-3.62v-15h5.68v15q0 2.16 1.01 3.34 1 1.19 3 1.19 1.47 0 2.76-.66 1.28-.65 2.43-1.8zm11.37-10.58h5.68v34.18h-5.68zm19.22 34.55q-3.08 0-4.72-1.74-1.65-1.73-1.65-4.79v-13.18h-2.41q-.46 0-.78-.3-.33-.3-.33-.9v-2.25l3.8-.62 1.2-6.44q.11-.46.43-.72.32-.25.83-.25h2.94v7.43h6.31v4.05h-6.31v12.79q0 1.1.55 1.72.54.62 1.48.62.53 0 .88-.13.36-.12.63-.26.26-.14.47-.26.2-.13.41-.13.25 0 .41.13.17.12.35.37l1.7 2.77q-1.24 1.03-2.85 1.56t-3.34.53"/></svg>