<svg xmlns="http://www.w3.org/2000/svg" width="256" height="198" viewBox="0 0 256 198">
  <path fill="#ffffff"
    d="M66.055 87.25h3.2v19.52h-1.86q-.43 0-.72-.14t-.56-.48l-10.2-13.01q.09.89.09 1.64v11.99h-3.2V87.25h1.9q.23 0 .4.02t.29.08q.13.06.25.18.13.11.27.3l10.24 13.07q-.04-.47-.07-.93t-.03-.85zm13.15 5.45q1.54 0 2.8.5 1.27.5 2.16 1.42.9.92 1.39 2.24.48 1.32.48 2.96t-.48 2.97q-.49 1.32-1.39 2.25-.89.93-2.16 1.43-1.26.5-2.8.5-1.55 0-2.82-.5t-2.17-1.43q-.89-.93-1.39-2.25-.49-1.33-.49-2.97t.49-2.96q.5-1.32 1.39-2.24.9-.92 2.17-1.42t2.82-.5m0 11.71q1.73 0 2.56-1.16t.83-3.41q0-2.24-.83-3.41-.83-1.18-2.56-1.18-1.75 0-2.6 1.19-.84 1.18-.84 3.4 0 2.23.84 3.4.85 1.17 2.6 1.17m20.1-17.16v8.18h.85q.52 0 .85-.14.34-.14.58-.45l5.39-6.82q.34-.43.71-.6t.94-.17h3.13l-6.57 8.11q-.58.75-1.21 1.06.45.16.81.45t.68.76l6.78 9.14h-3.2q-.65 0-.97-.18t-.53-.54l-5.52-7.2q-.26-.37-.6-.52-.33-.15-.97-.15h-1.15v8.59h-3.63V87.25zm16.99 11h6.29q0-.65-.19-1.22-.18-.57-.54-1.01-.37-.43-.93-.68t-1.3-.25q-1.44 0-2.27.83-.83.82-1.06 2.33m8.5 2.01h-8.57q.08 1.07.38 1.85.29.77.78 1.28.49.5 1.15.75.67.25 1.48.25t1.4-.18q.59-.19 1.03-.42.43-.23.76-.42.34-.19.65-.19.41 0 .62.31l.96 1.21q-.56.65-1.25 1.09-.68.44-1.43.7-.75.27-1.53.37-.78.11-1.5.11-1.45 0-2.69-.48t-2.16-1.41q-.92-.94-1.45-2.33-.52-1.38-.52-3.2 0-1.42.46-2.67t1.31-2.17q.86-.93 2.1-1.47 1.23-.54 2.78-.54 1.31 0 2.42.42t1.9 1.22q.8.81 1.25 1.97.45 1.17.45 2.67 0 .76-.16 1.02t-.62.26m13.19-7.34h2.67l-7.54 17.66q-.15.35-.39.53-.23.18-.72.18h-2.48l2.59-5.56-5.6-12.81h2.93q.39 0 .61.19t.33.43l2.94 7.18q.15.37.25.73l.2.74q.12-.37.24-.75.12-.37.27-.73l2.78-7.17q.11-.27.36-.45.25-.17.56-.17m15.13 1.71-.87 1.22q-.15.19-.29.3-.15.1-.42.1-.25 0-.49-.15-.25-.16-.59-.35-.33-.2-.8-.35-.46-.16-1.15-.16-.88 0-1.54.32t-1.1.91-.66 1.44q-.21.84-.21 1.91 0 1.1.23 1.97.24.86.69 1.45.44.59 1.08.89.63.3 1.43.3.79 0 1.29-.19.49-.2.83-.43.33-.24.58-.44.25-.19.56-.19.41 0 .61.31l.96 1.21q-.55.65-1.2 1.09t-1.35.7q-.69.27-1.43.37-.73.11-1.46.11-1.28 0-2.42-.48-1.13-.48-1.98-1.39-.85-.92-1.35-2.25-.49-1.33-.49-3.03 0-1.53.44-2.83t1.29-2.26q.85-.95 2.11-1.49 1.25-.54 2.88-.54 1.56 0 2.72.5 1.17.5 2.1 1.43m5.55-7.92v7.69q.81-.75 1.78-1.22.98-.48 2.29-.48 1.13 0 2.01.39.88.38 1.46 1.08.59.69.89 1.66.31.96.31 2.12v8.82h-3.34v-8.82q0-1.26-.58-1.96-.58-.69-1.77-.69-.86 0-1.62.39-.75.39-1.43 1.06v10.02h-3.33V86.71zm19.21 16.48v-2.33q-1.44.06-2.43.25-.98.18-1.58.46-.59.29-.85.66-.25.38-.25.83 0 .88.52 1.25.52.38 1.35.38 1.03 0 1.78-.37t1.46-1.13m-7.04-7.27-.6-1.07q2.39-2.19 5.75-2.19 1.22 0 2.18.4t1.62 1.11 1 1.69q.35.99.35 2.16v8.75h-1.52q-.47 0-.72-.14-.26-.14-.41-.58l-.3-.99q-.52.47-1.02.83-.5.35-1.04.6-.54.24-1.16.37-.61.13-1.35.13-.88 0-1.62-.24-.75-.24-1.29-.71t-.83-1.17q-.3-.71-.3-1.64 0-.52.18-1.04.17-.52.57-1 .4-.47 1.03-.89.64-.41 1.56-.73.93-.31 2.16-.5 1.22-.2 2.8-.24v-.81q0-1.39-.59-2.06-.59-.66-1.72-.66-.81 0-1.34.18-.53.19-.94.43-.4.24-.73.42-.33.19-.74.19-.35 0-.59-.18-.25-.18-.39-.42m13.54-3h3.34v13.85h-3.34zm3.8-4.04q0 .43-.17.81-.18.38-.47.66-.29.29-.68.46t-.84.17q-.43 0-.81-.17-.39-.17-.67-.46-.28-.28-.45-.66t-.17-.81q0-.44.17-.83.17-.4.45-.68t.67-.45q.38-.17.81-.17.45 0 .84.17t.68.45.47.68q.17.39.17.83m5.84 4.65.23 1.09q.41-.42.88-.78.47-.35.98-.6.52-.25 1.12-.4.59-.14 1.29-.14 1.14 0 2.02.39.87.38 1.46 1.08.59.69.89 1.66.31.96.31 2.12v8.82h-3.34v-8.82q0-1.26-.58-1.96-.58-.69-1.77-.69-.86 0-1.62.39-.75.39-1.43 1.06v10.02h-3.33V92.92h2.04q.64 0 .85.61" />
</svg>