<svg xmlns="http://www.w3.org/2000/svg" width="256" height="198" viewBox="0 0 256 198">
  <path fill="#ffffff"
    d="M68.27 87.27h3.91v23.86H69.9q-.52 0-.88-.17-.35-.18-.68-.59l-12.46-15.9q.1 1.08.1 2.01v14.65h-3.91V87.27h2.32q.28 0 .49.03.21.02.36.09.16.08.31.22t.33.37l12.51 15.97q-.05-.58-.09-1.14-.03-.56-.03-1.04zm16.07 6.67q1.88 0 3.43.61 1.54.61 2.64 1.73 1.09 1.12 1.69 2.74.59 1.62.59 3.61 0 2.02-.59 3.63-.6 1.62-1.69 2.76-1.1 1.14-2.64 1.75-1.55.61-3.43.61-1.9 0-3.45-.61t-2.65-1.75q-1.09-1.14-1.69-2.76-.61-1.61-.61-3.63 0-1.99.61-3.61.6-1.62 1.69-2.74 1.1-1.12 2.65-1.73t3.45-.61m0 14.3q2.11 0 3.13-1.42 1.01-1.42 1.01-4.15 0-2.74-1.01-4.18-1.02-1.43-3.13-1.43-2.14 0-3.17 1.44-1.04 1.44-1.04 4.17 0 2.72 1.04 4.15 1.03 1.42 3.17 1.42m33.94-18.73-1.1 2.1q-.2.35-.42.5-.23.16-.56.16-.34 0-.75-.26-.4-.25-.96-.56-.56-.32-1.31-.57-.76-.26-1.78-.26-.92 0-1.62.22-.69.23-1.16.62-.47.4-.7.95t-.23 1.21q0 .85.47 1.41t1.25.95q.77.4 1.76.71.99.32 2.03.67 1.04.36 2.03.83t1.77 1.18q.77.72 1.24 1.76t.47 2.53q0 1.61-.55 3.02t-1.62 2.46q-1.06 1.05-2.6 1.65-1.53.6-3.51.6-1.14 0-2.25-.22-1.1-.22-2.12-.63-1.01-.42-1.9-.99-.89-.58-1.59-1.29l1.31-2.13q.16-.23.43-.39.26-.15.56-.15.41 0 .89.33.48.34 1.14.75.66.42 1.54.76.88.33 2.12.33 1.9 0 2.94-.9 1.04-.89 1.04-2.58 0-.94-.47-1.53-.47-.6-1.25-1-.77-.4-1.76-.69-.99-.28-2.02-.61-1.02-.33-2.01-.79t-1.77-1.2q-.77-.74-1.24-1.86-.47-1.11-.47-2.75 0-1.3.52-2.54.52-1.23 1.51-2.19t2.44-1.54q1.45-.57 3.33-.57 2.11 0 3.9.66 1.78.66 3.03 1.84m9.29 21.88q-2.21 0-3.39-1.24-1.18-1.25-1.18-3.44v-9.46h-1.73q-.33 0-.56-.21-.23-.22-.23-.64v-1.62l2.72-.45.86-4.62q.08-.33.31-.51t.59-.18h2.12v5.33h4.52v2.9h-4.52v9.18q0 .79.38 1.23.39.45 1.07.45.38 0 .63-.09.26-.09.45-.19t.34-.19.29-.09q.19 0 .3.09.12.09.25.27l1.22 1.98q-.89.75-2.05 1.12-1.15.38-2.39.38m6.77-17.19h4.09v16.93h-4.09zm4.65-4.93q0 .53-.21.99-.22.46-.57.81-.36.34-.84.55t-1.02.21q-.53 0-1-.21t-.82-.55q-.34-.35-.55-.81-.2-.46-.2-.99 0-.55.2-1.03.21-.47.55-.82.35-.35.82-.55.47-.21 1-.21.54 0 1.02.21.48.2.84.55.35.35.57.82.21.48.21 1.03m16.8 7.03-1.08 1.48q-.18.23-.35.36-.17.14-.5.14-.32 0-.61-.19-.3-.19-.71-.43-.42-.24-.99-.43-.56-.19-1.41-.19-1.07 0-1.88.39-.81.38-1.34 1.11-.54.73-.8 1.76-.27 1.03-.27 2.33 0 1.36.29 2.41.29 1.06.84 1.78.54.71 1.32 1.08.77.38 1.74.38.98 0 1.58-.24t1.02-.53q.41-.29.71-.53.31-.24.69-.24.49 0 .74.38l1.17 1.49q-.67.79-1.47 1.32-.79.54-1.64.86t-1.75.46q-.9.13-1.79.13-1.57 0-2.95-.59-1.39-.58-2.43-1.71-1.04-1.12-1.64-2.74-.6-1.63-.6-3.71 0-1.86.54-3.45.53-1.6 1.57-2.76t2.58-1.82q1.53-.66 3.53-.66 1.89 0 3.32.61t2.57 1.75m2.7-9.69h4.08v14.04h.76q.41 0 .65-.1.24-.11.49-.44l4.2-5.2q.27-.35.59-.53t.83-.18h3.73l-5.26 6.29q-.56.74-1.22 1.14.34.24.62.57.27.33.52.71l5.64 8.22h-3.68q-.48 0-.83-.16-.34-.15-.57-.57l-4.33-6.41q-.23-.38-.48-.5-.24-.12-.74-.12h-.92v7.76h-4.08zm20.86 14.11h7.69q0-.79-.23-1.49-.22-.71-.66-1.23-.45-.53-1.13-.84-.69-.3-1.6-.3-1.76 0-2.78 1-1.01 1.01-1.29 2.86m10.39 2.46h-10.47q.1 1.3.46 2.25t.96 1.57q.59.62 1.41.92.81.31 1.8.31t1.71-.24q.72-.23 1.25-.51.54-.28.94-.51.41-.23.79-.23.51 0 .76.38l1.17 1.49q-.68.79-1.52 1.32-.84.54-1.76.86-.91.32-1.86.46-.95.13-1.84.13-1.77 0-3.28-.59-1.52-.58-2.64-1.73-1.13-1.15-1.77-2.84t-.64-3.92q0-1.73.56-3.26.56-1.52 1.61-2.65 1.04-1.13 2.55-1.79t3.41-.66q1.6 0 2.96.51 1.35.51 2.32 1.49.98.98 1.53 2.41t.55 3.26q0 .92-.2 1.25-.2.32-.76.32m7.61-7.96.25 1.92q.79-1.52 1.88-2.39 1.09-.86 2.57-.86 1.17 0 1.88.51l-.26 3.05q-.08.3-.24.42-.16.13-.42.13-.25 0-.73-.09-.49-.08-.95-.08-.68 0-1.21.2t-.95.57-.74.9-.6 1.2v10.43h-4.08V94.2h2.4q.62 0 .87.22.25.23.33.8" />
</svg>